<svg id="Capa_1" data-name="Capa 1" xmlns="http://www.w3.org/2000/svg" viewBox="0 0 776.36 1000" style="fill: #005801 "><title>delete</title><path d="M736.41,1000H263.7a9.35,9.35,0,0,0-2.48-1.4c-60.09-12.48-94.64-54.55-94.66-115.78q-.09-324.57,0-649.15V223.22h667V596.81c0,95.66.15,191.32-.07,287-.11,49.17-21.71,85.5-66.7,106.56C757.26,994.83,746.57,996.85,736.41,1000Z" transform="translate(-111.86)"/><path d="M640.69,0c14.14,14.69,28.7,29,42.24,44.21,7.82,8.79,16.32,11.64,28,11.51,55-.63,110-.28,165-.28h12.24V165.79H111.86V55.44h11.29c57.62,0,115.24-.1,172.86.13,6.67,0,11.57-1.68,16.27-6.58,13.74-14.33,28-28.15,42-42.25,2-2,3.45-4.48,5.15-6.74Z" transform="translate(-111.86)"/></svg>